<?xml version="1.0" encoding="UTF-8" standalone="no"?>
<!-- Created with Inkscape (http://www.inkscape.org/) -->

<svg
   xmlns:dc="http://purl.org/dc/elements/1.1/"
   xmlns:cc="http://creativecommons.org/ns#"
   xmlns:rdf="http://www.w3.org/1999/02/22-rdf-syntax-ns#"
   xmlns:svg="http://www.w3.org/2000/svg"
   xmlns="http://www.w3.org/2000/svg"
   xmlns:sodipodi="http://sodipodi.sourceforge.net/DTD/sodipodi-0.dtd"
   xmlns:inkscape="http://www.inkscape.org/namespaces/inkscape"
   width="101.2843mm"
   height="50.28333mm"
   viewBox="0 0 358.8814 178.1692"
   id="svg2"
   version="1.1"
   inkscape:version="0.91 r13725"
   sodipodi:docname="logo.svg">
  <title
     id="title4208">SVGnife logo</title>
  <defs
     id="defs4" />
  <sodipodi:namedview
     id="base"
     pagecolor="#ffffff"
     bordercolor="#666666"
     borderopacity="1.0"
     inkscape:pageopacity="0.0"
     inkscape:pageshadow="2"
     inkscape:zoom="0.35"
     inkscape:cx="375"
     inkscape:cy="520"
     inkscape:document-units="px"
     inkscape:current-layer="layer1"
     showgrid="false"
     fit-margin-top="10"
     fit-margin-bottom="10"
     fit-margin-left="10"
     fit-margin-right="10" />
  <metadata
     id="metadata7">
    <rdf:RDF>
      <cc:Work
         rdf:about="">
        <dc:format>image/svg+xml</dc:format>
        <dc:type
           rdf:resource="http://purl.org/dc/dcmitype/StillImage" />
        <dc:title>SVGnife logo</dc:title>
        <dc:date>2016-01-30</dc:date>
        <dc:creator>
          <cc:Agent>
            <dc:title>Krzysztof Blachnicki</dc:title>
          </cc:Agent>
        </dc:creator>
        <dc:publisher>
          <cc:Agent>
            <dc:title>krzysiu.net</dc:title>
          </cc:Agent>
        </dc:publisher>
        <dc:language>neutral</dc:language>
        <dc:subject>
          <rdf:Bag>
            <rdf:li>logo</rdf:li>
            <rdf:li>svg</rdf:li>
            <rdf:li>svgnife</rdf:li>
          </rdf:Bag>
        </dc:subject>
        <dc:description>The basic logo of SVGnife tool.</dc:description>
        <cc:license
           rdf:resource="http://www.gnu.org/licenses/gpl.html" />
      </cc:Work>
    </rdf:RDF>
  </metadata>
  <g
     inkscape:label="Logo"
     inkscape:groupmode="layer"
     id="layer1"
     transform="translate(24.48724,-47.89829)">
    <path
       id="path4200"
       style="fill:#000000;fill-opacity:1;stroke:none;stroke-width:1px;stroke-linecap:butt;stroke-linejoin:miter;stroke-opacity:1"
       d="m 132.9632,165.8687 q -3.9443,1.2919 -8.1943,2.1762 -4.2504,0.8839 -9.1467,0.8839 -11.0848,0 -17.27328,-5.9844 -6.18849,-5.9843 -6.18849,-16.9672 0,-11.9688 5.98436,-17.8854 6.01821,-5.9502 17.61321,-5.9502 8.2966,0 16.0153,2.0401 l 0,9.7926 -2.2784,0 -0.9178,-5.6442 q -2.3464,-1.6663 -5.6445,-2.5505 -3.2642,-0.9178 -6.9028,-0.9178 -8.7045,0 -12.7507,5.202 -4.01238,5.1685 -4.01238,15.8453 0,10.0306 4.14848,15.2333 4.1484,5.1685 12.2747,5.1685 2.8563,0 5.9844,-0.6805 3.1284,-0.6798 4.7605,-1.6321 l 0,-12.9549 -5.8486,-0.8839 0,-1.8362 16.8315,0 0,1.8362 -4.4545,0.8839 0,14.8253 z m -41.44009,-43.2172 0,1.802 -4.99852,0.8843 -18.3275,43.9651 -1.734,0 -18.53131,-43.9651 -5.1343,-0.8843 0,-1.802 18.42909,0 0,1.802 -6.12014,0.8843 13.80497,33.5601 13.77077,-33.5601 -5.98436,-0.8843 0,-1.802 14.8253,0 z m -80.50956,33.3224 2.21032,0 1.18997,6.1543 q 1.25834,1.5983 4.3184,2.8224 3.09425,1.2238 6.08659,1.2238 4.76021,0 7.41234,-2.4141 2.6863,-2.448 2.6863,-6.7325 0,-2.448 -1.0542,-4.0462 -1.02003,-1.598 -2.72017,-2.686 -1.66596,-1.1223 -3.80823,-1.8701 -2.14227,-0.782 -4.42031,-1.5641 -2.24418,-0.782 -4.38645,-1.7343 -2.14195,-0.952 -3.84209,-2.4141 -1.66628,-1.4622 -2.72017,-3.6041 -1.02002,-2.1762 -1.02002,-5.3384 0,-5.4404 4.08009,-8.5349 4.08041,-3.094 11.32279,-3.094 5.50837,0 11.96905,1.4619 l 0,9.4868 -2.21032,0 -1.18997,-5.5764 q -3.46833,-2.5163 -8.56876,-2.5163 -4.55608,0 -7.14048,1.8701 -2.55021,1.8362 -2.55021,5.1004 0,2.2103 1.02034,3.6724 1.05388,1.4619 2.72016,2.5161 1.70015,1.02 3.8421,1.7682 2.17613,0.7481 4.42031,1.564 2.27836,0.7821 4.42031,1.8021 2.17613,0.9861 3.84241,2.5502 1.70014,1.5302 2.72017,3.7744 1.05388,2.21 1.05388,5.4742 0,6.5967 -4.04622,10.235 -4.04623,3.6041 -11.6627,3.6041 -3.67246,0 -7.37847,-0.6459 -3.70632,-0.646 -6.59676,-1.7682 l 0,-10.5408 z"
       inkscape:connector-curvature="0"
       inkscape:export-xdpi="107"
       inkscape:export-ydpi="107" />
    <path
       id="path4169-3"
       style="fill:#d40000;fill-opacity:1;stroke:none;stroke-width:1px;stroke-linecap:butt;stroke-linejoin:miter;stroke-opacity:1"
       d="m 226.1325,120.5098 c -0.2332,0.1885 -0.6236,0.077 -1.2095,-0.3686 -0.4676,-0.4083 -0.9245,-0.9015 -1.3621,-1.4775 -0.4798,-0.6779 -0.8421,-1.3184 -1.0903,-1.9244 -0.2907,-0.7095 -0.3664,-1.2618 -0.23,-1.6621 0.6865,-1.0287 1.8276,-2.217 3.3552,-3.6185 1.6245,-1.449 3.4495,-2.5285 5.4777,-3.2364 0.1885,-0.032 0.5169,0.1597 0.9884,0.5699 0.4326,0.3003 0.6303,0.5482 0.5942,0.7108 -1.6314,1.1829 -2.9834,2.8035 -4.0574,4.8621 -1.1143,1.9583 -1.9356,4.0079 -2.471,6.1441 z m 72.3654,10.2875 c 0,6.752 -8.9435,11.3716 -26.8302,13.8592 -0.1182,1.1846 -0.2364,2.3691 -0.3555,3.5537 l 0,3.7315 c 0,3.0799 0.7108,5.449 2.1323,7.1073 1.4213,1.6583 3.6722,2.4876 6.7521,2.4876 2.2505,0 4.5605,-0.6514 6.9296,-1.9544 2.3691,-1.3031 4.2644,-2.9617 5.686,-4.9752 0.4737,-0.2364 0.8293,-0.1182 1.066,0.3552 0.2364,0.3555 0.2971,0.7702 0.1789,1.244 -2.3691,3.0798 -5.3895,5.745 -9.0617,7.9956 -3.5539,2.1324 -7.4037,3.1984 -11.5496,3.1984 -4.1459,0 -7.1666,-1.0069 -9.062,-3.0208 -1.7768,-2.1323 -2.6652,-5.0937 -2.6652,-8.884 0,-3.6722 0.7699,-7.4628 2.31,-11.372 1.5401,-4.0274 3.4945,-7.6995 5.8636,-11.0165 2.4876,-3.3169 5.2713,-5.9821 8.3512,-7.9956 3.1981,-2.1324 6.3965,-3.1984 9.5949,-3.1984 3.1984,0 5.7451,0.9475 7.6404,2.8428 2.0135,1.7772 3.0204,3.791 3.0204,6.0416 z m -15.4585,-4.2644 c -2.7246,0 -5.0937,1.303 -7.1073,3.9088 -1.8953,2.4876 -3.1983,6.3968 -3.9091,11.7272 5.686,-0.5922 9.891,-1.6583 12.6156,-3.1983 2.7246,-1.6583 4.0868,-3.6722 4.0868,-6.0413 0,-1.7768 -0.5332,-3.2575 -1.5992,-4.442 -1.066,-1.3031 -2.4285,-1.9544 -4.0868,-1.9544 z m 5.4311,-43.19748 c 2.2505,0 4.097,0.65871 5.686,1.77681 1.6123,1.13471 2.9019,2.4876 3.7312,4.26441 0.8293,1.77682 1.1254,3.72869 1.066,5.86361 -0.1789,3.05336 -0.5415,4.98605 -2.0969,6.92805 -13.7519,-21.77731 -41.0005,4.1976 -43.2824,20.4554 4.5903,0.2012 6.3022,-0.1789 9.062,-0.1789 l 9.0617,0 c 0.6376,0 0.8293,0.5919 0.7108,1.066 -0.1182,0.4741 -0.646,0.8268 -1.5992,0.8884 -2.7212,0.1789 -5.625,0.2971 -8.7065,0.3553 -3.0792,0.058 -6.2425,-0.3907 -9.2396,0.3555 -0.7242,1.0405 -0.9012,2.5458 -1.2436,3.7313 -11.1117,29.441 -28.4182,60.7218 -62.0157,61.7932 -3.9091,0 -6.8433,-0.9769 -8.884,-2.8428 -2.1056,-1.9254 -3.1984,-4.3235 -3.1984,-7.2852 0,-3.1984 1.1011,-6.1211 3.376,-8.7064 0.3319,-0.3776 0.7325,-0.4444 1.066,-0.1789 0.262,0.2076 0.483,0.5565 0.3552,0.8884 -0.4753,1.2363 -0.8238,2.4278 -0.7104,3.7312 0.1246,1.4213 0.6887,2.6956 1.5992,3.9092 0.8673,1.1567 2.1531,2.0819 3.9088,2.8428 1.7992,0.7798 4.0868,1.244 6.9297,1.244 30.409,-1.7519 42.1825,-37.1968 48.1563,-55.0413 l 1.0661,-3.1984 c 0.7155,-2.1467 -4.3986,-0.214 -6.4221,0.08 -2.0058,0.2939 -3.9184,1.5136 -5.8383,1.695 -0.6016,0.057 -0.7105,-0.413 -0.3553,-0.8884 0.3553,-0.4737 0.8718,-0.9737 1.5992,-1.4212 3.7555,-2.2113 7.6312,-2.1905 11.9049,-2.6653 3.3552,-0.3731 3.6804,-21.5195 26.7224,-34.49095 5.9154,-3.33001 11.7864,-4.97489 17.5909,-4.97489 z m -83.2288,51.01548 c -0.3556,0.2364 -0.6517,0.1789 -0.8887,-0.1789 -0.2364,-0.4741 -0.2971,-0.8884 -0.1789,-1.244 4.3829,-3.5536 10.4836,-7.226 18.3016,-11.0164 0.9475,0 1.4213,0.5332 1.4213,1.5992 -1.5398,2.7243 -3.0796,5.686 -4.6197,8.8841 -1.4216,3.1984 -2.7243,6.3968 -3.9092,9.5951 -1.066,3.0796 -1.9544,6.1004 -2.6652,9.0617 -0.7108,2.8432 -1.066,5.212 -1.066,7.1076 0,2.3688 0.8293,3.5536 2.4876,3.5536 1.303,0 2.5467,-0.5331 3.7312,-1.5992 1.3031,-1.1845 2.7838,-2.6652 4.4424,-4.442 0.2364,-0.2364 0.5328,-0.1789 0.8884,0.1789 0.3552,0.2364 0.4143,0.6517 0.1789,1.244 -2.6061,3.0795 -5.2123,5.5671 -7.8181,7.4624 -2.4876,1.8957 -4.9161,2.8432 -7.2851,2.8432 -4.1459,0 -6.2189,-1.9548 -6.2189,-5.8636 0,-2.1324 0.2971,-4.62 0.8884,-7.4628 0.7108,-2.9617 1.5992,-5.9227 2.6652,-8.8841 1.1846,-3.0799 2.4285,-6.0415 3.7313,-8.8844 1.4216,-2.9616 2.8431,-5.508 4.2644,-7.6404 -1.3028,0.7108 -2.7837,1.5992 -4.442,2.6652 -1.5398,1.0661 -2.8429,2.0733 -3.9089,3.0208 z m -10.7085,20.6113 c 0.2364,-0.2364 0.5332,-0.1757 0.8884,0.1789 0.3556,0.2364 0.4741,0.5926 0.3556,1.0663 -2.1324,2.9614 -4.62,5.5675 -7.4628,7.8181 -2.7247,2.2505 -5.449,3.376 -8.1736,3.376 -2.0135,0 -3.6127,-0.6517 -4.7973,-1.9548 -1.066,-1.303 -1.5992,-3.0204 -1.5992,-5.1528 0,-4.1459 0.7108,-8.6473 2.1321,-13.504 1.5401,-4.8567 3.5536,-9.7725 6.0412,-14.7477 0.3555,-0.829 0.5332,-1.7174 0.5332,-2.6652 0,-1.1846 -0.5332,-1.7768 -1.5992,-1.7768 -4.383,0 -9.2396,3.0207 -14.5701,9.062 -5.3307,5.9227 -10.2465,15.399 -14.7477,28.4293 -0.1182,0.3555 -0.5338,0.7108 -1.2439,1.066 -0.5923,0.2364 -1.3031,0.4741 -2.1321,0.7108 -0.8293,0.1182 -1.6586,0.2364 -2.4876,0.3552 -0.8293,0.1182 -1.481,0.1789 -1.9547,0.1789 -0.5923,0 -1.066,-0.1182 -1.4213,-0.3555 -0.2364,-0.2364 -0.2364,-0.6514 0,-1.2437 2.0135,-5.0937 4.0274,-10.6612 6.0412,-16.7024 2.1324,-6.1597 3.9683,-12.3195 5.5081,-18.4792 0.3556,-1.1846 0.415,-2.0139 0.1789,-2.4876 -0.2364,-0.5923 -0.6514,-0.8884 -1.2436,-0.8884 -1.3031,0 -2.5467,0.5922 -3.7313,1.7771 -1.1845,1.066 -2.2506,2.2506 -3.1984,3.5536 -0.3555,0.2364 -0.7108,0.1757 -1.066,-0.1789 -0.2364,-0.3552 -0.2971,-0.7104 -0.1789,-1.066 0.5923,-0.829 1.3622,-1.7768 2.31,-2.8428 1.066,-1.0661 2.2506,-2.073 3.5536,-3.0208 1.3031,-1.066 2.6656,-1.8953 4.0868,-2.4876 1.4216,-0.7108 2.8432,-1.066 4.2644,-1.066 2.0139,0 3.3169,0.6513 3.9092,1.9544 0.7108,1.1849 0.8884,2.6655 0.5329,4.4424 -0.5923,2.6058 -1.2437,5.0934 -1.9545,7.4624 -0.5922,2.2506 -1.3621,4.7976 -2.31,7.6405 1.4216,-2.6058 3.1393,-5.1529 5.1529,-7.6405 2.1323,-2.6058 4.4423,-4.9157 6.9299,-6.9296 2.6058,-2.132 5.3896,-3.7903 8.3509,-4.9752 2.9617,-1.3031 6.1007,-1.9544 9.4172,-1.9544 1.4216,0 2.4876,0.3552 3.1984,1.066 0.8293,0.7108 1.244,1.5401 1.244,2.4876 0,1.6583 -0.4147,3.1393 -1.244,4.4423 -2.4876,4.5015 -4.6196,9.1802 -6.3964,14.0369 -1.6583,4.7382 -2.4876,9.0026 -2.4876,12.7933 0,3.0799 1.0069,4.6199 3.0204,4.6199 1.3031,0 2.6061,-0.5331 3.9092,-1.5991 1.3031,-1.0661 2.7837,-2.6653 4.442,-4.7976 z"
       inkscape:connector-curvature="0"
       sodipodi:nodetypes="cccccccccccccccscscccccscscccscccscccscsccscccsscccccccscccccsccccccccsccccccccccsscccccssccccccccccscsccsscccccscccccscccccccscccccccscsccssscc"
       inkscape:export-xdpi="107"
       inkscape:export-ydpi="107" />
    <path
       style="fill:#ffffff;fill-rule:evenodd;stroke:none;stroke-width:1px;stroke-linecap:butt;stroke-linejoin:miter;stroke-opacity:1"
       d="m 257.0712,101.2575 c -2.6122,2.5589 -2.6221,6.7207 2.6649,1.7919 7.5985,-6.5901 33.1371,-26.64681 36.8393,-2.6477 3.4894,-20.20653 -15.8632,-22.16192 -39.5042,0.8558 z"
       id="path4206"
       inkscape:connector-curvature="0"
       sodipodi:nodetypes="cccc"
       inkscape:export-xdpi="107"
       inkscape:export-ydpi="107" />
  </g>
</svg>
